PathFileType	4	(X/Y/Z)	C:\Users\WrightLab\Desktop\Jo\P1.2Trial19.trc
DataRate	CameraRate	NumFrames	NumMarkers	Units	OrigDataRate	OrigDataStartFrame	OrigNumFrames
100.00	100.00	       14	19	mm	100.00	236	       629
Frame#	Time	Headset_Front			Headset_Back			Headset_Left			Headset_Right			Left_Shoulder			Right_Shoulder			Sternum			C7			Left Elbow			Right Elbow			Left Wrist			Right Wrist			Left ASIS			Right ASIS			S2			Left Knee			Right Knee			Left Ankle			Right Ankle			
		X1	Y1	Z1	X2	Y2	Z2	X3	Y3	Z3	X4	Y4	Z4	X5	Y5	Z5	X6	Y6	Z6	X7	Y7	Z7	X8	Y8	Z8	X9	Y9	Z9	X10	Y10	Z10	X11	Y11	Z11	X12	Y12	Z12	X13	Y13	Z13	X14	Y14	Z14	X15	Y15	Z15	X16	Y16	Z16	X17	Y17	Z17	X18	Y18	Z18	X19	Y19	Z19	

236	2.350	-413.22443	1383.48267	390.88284	-543.20044	1517.63684	148.96303	-392.26776	1449.87988	191.13992	-553.91516	1426.94897	355.21530	-334.20923	1237.38928	77.25928	-691.04639	1242.85864	309.55249	-446.06522	1179.36584	293.48486	-575.96106	1302.44604	100.63496	-281.63318	947.96545	35.94035	-779.53516	994.69934	313.44437	-197.06628	757.74744	170.93704	-790.63696	747.59137	420.07086	-355.65472	866.45166	201.34117	-575.30908	854.08801	360.23007	-616.24438	901.75360	42.14315	-434.79889	418.74396	153.37685	-557.60205	470.70374	411.23148	-534.19098	81.69325	47.79353	-527.51172	180.44728	527.79236	
237	2.360	-409.37326	1381.89685	400.40881	-540.07971	1516.25012	158.19331	-389.03598	1448.60962	200.41942	-550.01624	1425.47437	363.95474	-330.93494	1235.95203	85.55305	-687.30139	1241.27673	318.55832	-440.64835	1178.24158	301.52109	-572.77429	1300.82874	109.01989	-279.11221	946.44690	42.94730	-774.74432	992.77997	323.95404	-194.62764	755.43353	176.72638	-786.51111	745.71411	430.28958	-351.92245	865.88434	209.82700	-569.42145	852.96869	370.71643	-614.52490	900.98596	50.84517	-432.03882	417.75900	158.63353	-550.84094	470.09729	419.76117	-533.19641	82.06326	47.98734	-515.15479	185.49562	539.99805	
238	2.370	-406.19458	1380.86829	409.29703	-537.02716	1514.73291	167.46053	-385.53958	1447.85657	209.83839	-546.71375	1423.83923	373.42828	-327.81213	1234.87402	93.15307	-681.01855	1239.51746	329.19864	-436.10043	1176.46753	309.76215	-569.99805	1299.48804	118.68066	-276.73145	944.52692	51.34469	-770.18646	991.18756	334.44116	-190.55579	754.13727	183.21924	-782.50812	744.12573	440.80597	-347.66269	864.20917	217.22324	-563.62518	851.55023	381.86389	-611.82111	899.90204	61.20955	-427.64999	416.70547	164.11807	-543.81592	469.19415	428.75784	-532.67017	82.35240	49.00609	-502.33939	188.38573	550.27271	
239	2.380	-401.55093	1380.03711	418.20490	-534.12256	1513.29480	176.94435	-382.27130	1446.65198	218.45538	-543.21381	1422.41711	382.65524	-324.79428	1233.34802	100.96839	-677.43280	1238.31213	339.88742	-431.73895	1175.10779	318.69128	-566.08069	1297.96472	128.93608	-274.56543	943.79926	59.04623	-765.18158	989.15259	344.95959	-187.39465	751.98505	188.21056	-777.17700	742.40442	451.74368	-342.61371	863.29102	225.01938	-557.66626	849.75409	392.03549	-609.46344	897.98151	71.43188	-424.39655	415.04431	169.23621	-536.81049	468.03104	438.51117	-532.16541	82.60649	49.62545	-491.60052	191.02637	559.66461	
240	2.390	-398.52927	1378.47131	426.51282	-530.99799	1512.03198	186.26703	-379.14136	1445.67126	227.93636	-539.45911	1420.88391	391.88852	-322.27533	1231.61829	109.30511	-672.30786	1236.08545	349.81766	-426.98785	1174.11877	327.04803	-563.26074	1296.29932	138.27415	-271.92142	941.92853	66.77895	-760.85992	987.58148	355.65472	-184.31902	749.71802	193.78122	-773.21625	741.53503	462.34805	-338.09793	862.26123	232.42285	-552.06708	849.18188	402.42258	-607.06085	896.59802	80.50894	-419.82233	413.63663	175.53809	-529.33496	467.18414	449.19104	-531.67700	83.62286	50.79451	-481.34079	192.68582	567.01160	
241	2.400	-394.55682	1378.21240	436.37625	-528.07092	1510.74207	195.71059	-375.82236	1444.82813	237.56607	-535.98950	1419.39038	401.35736	-319.03625	1230.59277	117.55898	-668.08496	1234.24011	359.07651	-422.61887	1173.15833	336.37302	-560.95514	1295.76929	147.74586	-270.47113	941.07831	73.46191	-756.02179	985.62610	366.43280	-181.46432	747.22681	198.71928	-769.53778	739.38568	472.13632	-333.54001	860.39136	239.46660	-545.84113	847.49237	412.64767	-604.17511	895.38538	90.54480	-415.20737	412.67386	182.50238	-522.85077	467.48389	460.25516	-531.35651	84.73676	51.39004	-472.68167	194.35083	574.52832	
242	2.410	-391.70685	1378.33655	446.61060	-524.96344	1509.85217	205.15384	-371.71063	1444.42908	243.45874	-532.48059	1418.85461	410.66669	-316.60925	1229.46436	125.21684	-663.81342	1233.28284	370.87723	-417.75638	1172.15479	345.23328	-558.53674	1294.30872	157.44029	-268.45560	939.93176	80.31857	-751.50336	983.94366	377.19809	-178.62589	745.85632	202.39240	-765.22327	737.63074	482.71497	-328.13852	860.21906	247.56364	-540.59003	846.45618	422.82635	-601.13031	894.48810	99.89136	-411.06104	411.31213	191.28596	-515.13245	465.94058	470.78445	-530.00128	86.25032	52.41719	-465.00336	194.01961	578.72479	
243	2.420	-387.42590	1377.19690	455.72205	-521.76392	1508.69287	214.33397	-368.36581	1443.57532	252.31641	-528.60748	1417.52478	419.80811	-313.59396	1228.56287	133.76479	-659.00696	1231.19458	381.47659	-413.80502	1171.76038	354.14752	-554.61151	1292.48535	167.90353	-267.06177	938.20209	88.25063	-746.51385	981.93182	388.31848	-176.36780	743.47467	206.82422	-760.10535	736.29858	493.55011	-323.41272	859.74982	257.66153	-534.77948	845.02112	432.53961	-597.35248	892.02203	110.26394	-406.32513	410.33524	198.16862	-507.89096	464.60864	480.82538	-530.91547	87.97329	53.24673	-458.09598	191.64919	582.08405	
244	2.430	-383.31448	1375.16980	462.54578	-518.64154	1507.87183	223.66124	-365.16470	1442.63745	261.83194	-524.88422	1416.50049	429.59497	-311.32916	1227.99133	141.41385	-655.63306	1229.37573	390.02460	-409.39893	1170.90674	363.49161	-552.57520	1291.93359	177.29738	-265.44879	937.82910	93.80563	-741.61456	980.15302	399.56113	-173.30443	741.79028	211.34189	-755.56757	733.91681	503.49182	-317.10962	859.91864	269.34082	-529.61267	844.55267	442.60156	-593.22858	891.09473	120.40722	-400.74750	408.93332	205.64218	-500.44470	462.24271	490.42633	-530.54230	91.17377	54.32387	-452.46323	188.21140	584.16003	
245	2.440	-380.29666	1374.26990	471.70450	-515.47595	1507.46558	233.21832	-362.98300	1442.95056	268.64771	-521.28687	1416.21533	438.94910	-308.83609	1227.31848	150.15265	-651.06677	1227.55701	401.12711	-405.60968	1170.58777	373.18350	-550.17871	1290.90894	187.39754	-264.11578	937.05951	102.04013	-736.61877	978.69971	410.50681	-170.60632	740.03571	215.61673	-750.95020	732.38898	513.86432	-311.13013	858.61890	277.90506	-523.42981	843.12012	452.54141	-588.91840	889.29260	130.69150	-395.96259	407.84158	214.22079	-493.83212	459.45499	500.12106	-529.32593	94.36134	55.07629	-446.71313	182.56813	586.33441	
246	2.450	-375.61356	1375.66882	483.31448	-512.32776	1507.03394	242.81783	-359.77185	1442.10461	279.04938	-517.82556	1416.20593	448.73465	-306.39569	1226.98950	158.89931	-646.85443	1226.81726	412.49326	-400.72653	1170.70251	382.44913	-547.13879	1289.89966	197.73149	-262.66690	936.88818	107.68602	-731.98364	977.17767	421.83047	-168.24170	739.00470	218.92664	-746.10687	730.80145	524.47046	-307.24622	858.07428	285.86603	-517.82172	842.28912	462.55026	-584.86249	888.76672	139.83267	-388.01419	407.81268	223.18872	-487.39343	456.42972	509.70947	-526.92236	97.07637	54.87998	-440.15945	174.94699	588.58643	
247	2.460	-372.14249	1376.37903	492.91891	-508.94586	1507.33972	252.40442	-356.37708	1441.78882	290.76874	-513.33044	1415.85803	458.14160	-303.84387	1227.04968	166.91162	-643.65057	1225.85010	423.07498	-396.77246	1171.18237	392.23648	-544.54712	1289.36450	207.76933	-261.52701	937.24744	114.22475	-727.30566	975.69183	432.60101	-165.74136	738.07312	221.73286	-740.06921	729.55646	534.79987	-302.07877	858.39911	296.00717	-512.97290	842.52148	472.40414	-580.94257	887.57312	149.41989	-382.42477	406.65656	231.53030	-481.61020	453.74353	517.95917	-525.84186	101.88460	56.47766	-434.29901	165.83289	591.37805	
248	2.470	-368.21033	1375.71448	497.11722	-505.43860	1507.72864	262.01019	-352.92868	1442.41211	298.13904	-509.10132	1416.88184	468.05957	-301.48788	1227.78113	175.01401	-639.26758	1224.47437	433.57675	-392.53046	1171.88733	402.18332	-541.79242	1289.25403	218.12248	-260.08203	937.42938	120.87052	-722.57355	974.71643	443.82632	-163.67360	737.32617	224.93716	-735.91736	728.12067	544.56195	-297.08514	859.10693	305.79770	-505.91727	842.61334	482.94003	-575.72180	886.40479	160.34639	-376.39511	405.90442	239.76674	-476.19257	451.87817	525.92908	-523.06494	106.66580	60.87559	-430.53781	157.91588	594.89197	
249	2.480	-362.98483	1377.35645	511.65005	-501.97064	1508.32129	271.70502	-349.23608	1442.91699	307.81143	-505.33472	1418.09094	478.09604	-299.13074	1228.19885	183.64868	-635.97345	1225.21545	445.97556	-388.43707	1173.21350	412.20001	-538.92517	1289.70483	228.48946	-259.79959	938.06818	127.94450	-717.03522	974.37512	454.66931	-161.24002	736.94342	228.12508	-729.76068	727.45844	555.30475	-291.99896	859.90314	315.48212	-499.84967	842.67792	492.49780	-571.05853	886.15161	171.31256	-367.59979	407.26617	248.27310	-470.94223	452.09827	533.47723	-519.36566	111.58836	64.35149	-426.70410	149.45314	598.47272	
